<?xml version="1.0" encoding="utf-8"?>
<!-- Generator: Adobe Illustrator 15.0.0, SVG Export Plug-In . SVG Version: 6.00 Build 0)  -->
<!DOCTYPE svg PUBLIC "-//W3C//DTD SVG 1.1//EN" "http://www.w3.org/Graphics/SVG/1.1/DTD/svg11.dtd">
<svg version="1.1" id="Layer_1" xmlns="http://www.w3.org/2000/svg" xmlns:xlink="http://www.w3.org/1999/xlink" x="0px" y="0px"
	 width="142.245px" height="39.178px" viewBox="0 0 142.245 39.178" enable-background="new 0 0 142.245 39.178"
	 xml:space="preserve">
<g>
	<g>
		<path fill="#FF6000" d="M41.853,30.409L46.335,4.99c0.483-2.745-1.349-4.969-4.093-4.969h-4.969L34.52,15.633H14.046l2.753-15.612
			H6.86L0,38.927h9.938l2.754-15.618h20.474l-2.753,15.618h38.996l0.748-0.026c5.161-0.321,9.911-3.91,11.349-8.491
			c0.126-0.401,0.229-0.81,0.303-1.226l1.087-6.16c0.229-1.3,0.074-2.521-0.385-3.582c-0.982-2.268-3.365-3.803-6.412-3.803H49.792
			c0.086,1.404,0.523,2.696,1.247,3.803c1.537,2.35,4.359,3.867,7.838,3.867h11.809c1.227,0,2.046,0.994,1.829,2.221l-0.469,2.659
			c-0.129,0.733-0.6,1.381-1.219,1.785c-0.417,0.272-0.9,0.436-1.394,0.436H41.853z"/>
		<path fill="#FF6000" d="M117.968,25.439l4.482-25.418h9.938l-6.012,34.094l0,0c-0.218,1.231-1.096,2.462-2.583,3.402
			c-1.488,0.939-3.305,1.409-5.037,1.409c-1.09,0-2.146-0.187-3.068-0.559c-0.28-0.112-0.544-0.247-0.796-0.395
			c-0.238-0.139-0.468-0.287-0.677-0.456c-0.451-0.367-0.793-0.779-1.03-1.217h-0.001L99.598,13.507l-4.481,25.419h-9.939
			l5.359-30.389h-39.65c1.484-4.736,6.523-8.517,11.866-8.517H98.81c1.09,0,2.146,0.187,3.068,0.558
			c0.279,0.113,0.543,0.248,0.796,0.395c0.238,0.139,0.468,0.287,0.676,0.457c0.451,0.367,0.793,0.778,1.03,1.216l0.001,0
			L117.968,25.439z"/>
	</g>
	<g>
		<path fill="#FF6000" d="M137.9,7.559c-1.83,0-3.371-1.522-2.936-3.95c0.398-2.192,2.229-3.587,4.312-3.587
			c1.902,0,3.461,1.467,3.026,3.877C141.887,6.2,140.183,7.559,137.9,7.559z M138.1,6.852c1.686,0,3.098-1.142,3.46-3.081
			c0.381-2.065-0.778-3.062-2.409-3.062c-1.595,0-3.099,1.105-3.425,3.008C135.381,5.783,136.522,6.852,138.1,6.852z M137.266,5.547
			c-0.091,0-0.145-0.072-0.127-0.181l0.579-3.316c0.02-0.109,0.056-0.163,0.164-0.163h1.232c0.725,0,1.269,0.417,1.123,1.25
			c-0.108,0.652-0.598,0.996-1.068,1.05l0.652,1.215c0.054,0.09,0.018,0.145-0.091,0.145h-0.49c-0.071,0-0.126-0.037-0.163-0.109
			l-0.579-1.214h-0.508l-0.199,1.178c-0.018,0.09-0.073,0.145-0.163,0.145H137.266z M138.117,3.608h0.652
			c0.471,0,0.744-0.181,0.797-0.562c0.055-0.363-0.198-0.525-0.507-0.525h-0.761L138.117,3.608z"/>
	</g>
</g>
</svg>
